<svg width="588" height="124" viewBox="0 0 588 124" fill="none" xmlns="http://www.w3.org/2000/svg">
<path d="M53.8531 51.3328C51.8892 51.3328 50.29 52.9319 50.29 54.8958V69.7978C50.29 71.7618 51.8892 73.3609 53.8531 73.3609C55.8171 73.3609 57.4162 71.7618 57.4162 69.7978V54.9658C57.4162 52.9319 55.8171 51.3328 53.8531 51.3328Z" fill="white"/>
<path d="M38.3665 33.1176C36.4026 33.1176 34.8035 34.7167 34.8035 36.6806V88.018C34.8035 89.9819 36.4026 91.5811 38.3665 91.5811C40.3305 91.5811 41.9296 89.9819 41.9296 88.018V36.7506C42.0046 34.7167 40.4054 33.1176 38.3665 33.1176Z" fill="white"/>
<path d="M84.8265 51.3328C82.8626 51.3328 81.2634 52.9319 81.2634 54.8958V69.7978C81.2634 71.7618 82.8626 73.3609 84.8265 73.3609C86.7905 73.3609 88.3896 71.7618 88.3896 69.7978V54.9658C88.3896 52.9319 86.7905 51.3328 84.8265 51.3328Z" fill="white"/>
<path d="M69.3398 43.1172C67.3759 43.1172 65.7767 44.7163 65.7767 46.6803V78.0184C65.7767 79.9823 67.3759 81.5815 69.3398 81.5815C71.3038 81.5815 72.9029 79.9823 72.9029 78.0184V46.7552C72.9029 44.7213 71.3038 43.1222 69.3398 43.1222V43.1172Z" fill="white"/>
<path d="M22.8849 51.3328C20.9209 51.3328 19.3218 52.9319 19.3218 54.8958V69.7978C19.3218 71.7618 20.9209 73.3609 22.8849 73.3609C24.8488 73.3609 26.4479 71.7618 26.4479 69.7978V54.9658C26.5229 52.9319 24.9238 51.3328 22.8849 51.3328Z" fill="white"/>
<path d="M54.7627 111.525C82.7981 111.525 105.525 88.7981 105.525 60.7627C105.525 32.7272 82.7981 10 54.7627 10C26.7272 10 4 32.7272 4 60.7627C4 88.7981 26.7272 111.525 54.7627 111.525Z" stroke="white" stroke-width="7.49596" stroke-linecap="round" stroke-linejoin="round"/>
<path d="M90.6533 96.6533L108.814 114.814" stroke="white" stroke-width="7.49596" stroke-linecap="round" stroke-linejoin="round"/>
<path d="M149 80.5V34.8096H166.441C176.815 34.8096 182.882 40.0617 182.882 49.0619C182.882 55.1886 180.008 59.5612 174.631 61.7501L183.322 80.5H174.571L166.82 63.4342H157.006V80.5H149.005H149ZM157.001 56.373H166.441C171.503 56.373 174.501 53.6844 174.501 49.0619C174.501 44.4394 171.503 41.9357 166.441 41.9357H157.001V56.373Z" fill="white"/>
<path d="M187.124 71.6897C187.124 66.0027 191.252 62.4397 198.563 61.875L207.813 61.1853V60.4957C207.813 56.308 205.315 54.6189 201.437 54.6189C196.934 54.6189 194.436 56.4929 194.436 59.7461H187.934C187.934 53.0597 193.436 48.6821 201.812 48.6821C210.187 48.6821 215.249 53.1846 215.249 61.745V80.4949H208.563L207.998 75.9324C206.684 79.1207 202.496 81.3095 197.684 81.3095C191.122 81.3095 187.12 77.4966 187.12 71.6847L187.124 71.6897ZM207.878 68.0017V66.3775L201.442 66.8773C196.689 67.317 194.88 68.8762 194.88 71.3798C194.88 74.1933 196.754 75.5676 200.192 75.5676C204.88 75.5676 207.878 72.7541 207.878 68.0067V68.0017Z" fill="white"/>
<path d="M220.941 65.1882C220.941 55.5634 226.568 48.6871 235.878 48.6871C240.191 48.6871 244.004 50.5011 245.943 53.5645V34H253.504V80.505H246.502L246.003 75.6926C244.129 79.2556 240.126 81.3195 235.438 81.3195C226.498 81.3195 220.936 74.7581 220.936 65.1932L220.941 65.1882ZM245.883 64.9383C245.883 59.3763 242.445 55.4984 237.132 55.4984C231.82 55.4984 228.567 59.4363 228.567 64.9383C228.567 70.4404 231.815 74.3133 237.132 74.3133C242.45 74.3133 245.883 70.5003 245.883 64.9383Z" fill="white"/>
<path d="M260.565 38.8124C260.565 36.2488 262.629 34.2499 265.252 34.2499C267.876 34.2499 269.815 36.2488 269.815 38.8124C269.815 41.376 267.751 43.4399 265.252 43.4399C262.629 43.4399 260.565 41.376 260.565 38.8124ZM261.439 49.6266H269.065V80.505H261.439V49.6216V49.6266Z" fill="white"/>
<path d="M291.628 48.7471C301.193 48.7471 308.129 55.3735 308.129 64.9983C308.129 74.6231 301.193 81.2496 291.628 81.2496C282.063 81.2496 275.127 74.6231 275.127 64.9983C275.127 55.3735 282.063 48.7471 291.628 48.7471ZM291.628 74.4382C296.88 74.4382 300.503 70.6253 300.503 64.9983C300.503 59.3713 296.88 55.5584 291.628 55.5584C286.376 55.5584 282.753 59.3713 282.753 64.9983C282.753 70.6253 286.376 74.4382 291.628 74.4382Z" fill="white"/>
<path d="M329.866 80.505L346.367 34.8146H354.553L371.054 80.505H362.614L358.926 69.9407H341.86L338.172 80.505H329.861H329.866ZM344.243 63.1893H356.622L351.37 48.4372C350.995 47.2479 350.555 45.8736 350.43 44.9391C350.24 45.8137 349.865 47.1879 349.431 48.4372L344.243 63.1893Z" fill="white"/>
<path d="M375.682 80.505V49.6266H382.743L383.368 53.6245C385.306 50.5012 389.054 48.6871 393.242 48.6871C400.993 48.6871 404.991 53.4995 404.991 61.5002V80.5H397.365V63.3093C397.365 58.1221 394.801 55.6234 390.863 55.6234C386.176 55.6234 383.303 58.8716 383.303 63.874V80.5H375.677L375.682 80.505Z" fill="white"/>
<path d="M411.117 71.6897C411.117 66.0028 415.245 62.4397 422.556 61.875L431.806 61.1854V60.4958C431.806 56.308 429.308 54.6189 425.43 54.6189C420.927 54.6189 418.428 56.4929 418.428 59.7462H411.927C411.927 53.0598 417.429 48.6821 425.805 48.6821C434.18 48.6821 439.242 53.1847 439.242 61.7451V80.495H432.556L431.991 75.9325C430.677 79.1207 426.489 81.3096 421.677 81.3096C415.115 81.3096 411.112 77.4966 411.112 71.6848L411.117 71.6897ZM431.871 68.0017V66.3776L425.435 66.8773C420.682 67.3171 418.873 68.8763 418.873 71.3799C418.873 74.1934 420.747 75.5677 424.185 75.5677C428.873 75.5677 431.871 72.7542 431.871 68.0067V68.0017Z" fill="white"/>
<path d="M446.873 80.505V34H454.434V80.505H446.873Z" fill="white"/>
<path d="M459.746 88.4457H464.309C467.307 88.4457 469.186 87.7561 470.496 84.133L471.37 81.8193L458.932 49.6316H466.992L474.928 72.1345L483.304 49.6316H491.179L476.053 87.3863C473.739 93.1382 470.491 95.5119 465.428 95.5119C463.304 95.5119 461.43 95.262 459.741 94.8223V88.4457H459.746Z" fill="white"/>
<path d="M493.873 80.505V74.2533L509.25 56.0032H493.873V49.6266H518.814V55.9382L503.188 74.1284H518.814V80.505H493.873Z" fill="white"/>
<path d="M522.872 65.0683C522.872 55.3785 529.184 48.6921 538.249 48.6921C547.314 48.6921 553.376 54.8788 553.376 64.5036V66.8174L530.123 66.8773C530.683 72.3144 533.562 75.0629 538.624 75.0629C542.812 75.0629 545.56 73.4388 546.435 70.5004H553.496C552.182 77.2518 546.56 81.3146 538.494 81.3146C529.304 81.3146 522.867 74.6282 522.867 65.0633L522.872 65.0683ZM530.308 62.005H545.81C545.81 57.7523 542.872 54.9438 538.309 54.9438C533.746 54.9438 531.058 57.3825 530.308 62.005Z" fill="white"/>
<path d="M578.877 56.5679H576.064C570.562 56.5679 567.123 59.5063 567.123 65.508V80.51H559.498V49.6966H566.684L567.123 54.1991C568.438 51.1358 571.376 49.0719 575.499 49.0719C576.563 49.0719 577.623 49.1968 578.872 49.5117V56.5729L578.877 56.5679Z" fill="white"/>
</svg>
