<svg width="409" height="124" viewBox="0 0 409 124" fill="none" xmlns="http://www.w3.org/2000/svg">
<path d="M53.8532 51.3328C51.8892 51.3328 50.2901 52.9319 50.2901 54.8958V69.7978C50.2901 71.7618 51.8892 73.3609 53.8532 73.3609C55.8171 73.3609 57.4163 71.7618 57.4163 69.7978V54.9658C57.4163 52.9319 55.8171 51.3328 53.8532 51.3328Z" fill="#343434"/>
<path d="M38.3665 33.1176C36.4025 33.1176 34.8034 34.7167 34.8034 36.6806V88.018C34.8034 89.9819 36.4025 91.5811 38.3665 91.5811C40.3304 91.5811 41.9296 89.9819 41.9296 88.018V36.7506C42.0045 34.7167 40.4054 33.1176 38.3665 33.1176Z" fill="#343434"/>
<path d="M84.8265 51.3328C82.8625 51.3328 81.2634 52.9319 81.2634 54.8958V69.7978C81.2634 71.7618 82.8625 73.3609 84.8265 73.3609C86.7904 73.3609 88.3895 71.7618 88.3895 69.7978V54.9658C88.3895 52.9319 86.7904 51.3328 84.8265 51.3328Z" fill="#343434"/>
<path d="M69.3398 43.1172C67.3759 43.1172 65.7767 44.7163 65.7767 46.6803V78.0184C65.7767 79.9823 67.3759 81.5815 69.3398 81.5815C71.3038 81.5815 72.9029 79.9823 72.9029 78.0184V46.7552C72.9029 44.7213 71.3038 43.1222 69.3398 43.1222V43.1172Z" fill="#343434"/>
<path d="M22.8848 51.3328C20.9209 51.3328 19.3217 52.9319 19.3217 54.8958V69.7978C19.3217 71.7618 20.9209 73.3609 22.8848 73.3609C24.8487 73.3609 26.4479 71.7618 26.4479 69.7978V54.9658C26.5228 52.9319 24.9237 51.3328 22.8848 51.3328Z" fill="#343434"/>
<path d="M54.7627 111.525C82.7981 111.525 105.525 88.7981 105.525 60.7627C105.525 32.7272 82.7981 10 54.7627 10C26.7272 10 4 32.7272 4 60.7627C4 88.7981 26.7272 111.525 54.7627 111.525Z" stroke="#343434" stroke-width="7.49596" stroke-linecap="round" stroke-linejoin="round"/>
<path d="M90.6534 96.6533L108.814 114.814" stroke="#343434" stroke-width="7.49596" stroke-linecap="round" stroke-linejoin="round"/>
<path d="M160.139 46.5V0.80957H177.579C187.954 0.80957 194.021 6.06174 194.021 15.0619C194.021 21.1886 191.147 25.5612 185.77 27.7501L194.46 46.5H185.71L177.959 29.4342H168.144V46.5H160.144H160.139ZM168.139 22.373H177.579C182.642 22.373 185.64 19.6844 185.64 15.0619C185.64 10.4394 182.642 7.93573 177.579 7.93573H168.139V22.373Z" fill="#343434"/>
<path d="M198.263 37.6897C198.263 32.0027 202.391 28.4397 209.702 27.875L218.952 27.1853V26.4957C218.952 22.308 216.453 20.6189 212.576 20.6189C208.073 20.6189 205.574 22.4929 205.574 25.7461H199.073C199.073 19.0597 204.575 14.6821 212.95 14.6821C221.326 14.6821 226.388 19.1846 226.388 27.745V46.4949H219.702L219.137 41.9324C217.823 45.1207 213.635 47.3095 208.823 47.3095C202.261 47.3095 198.258 43.4966 198.258 37.6847L198.263 37.6897ZM219.017 34.0017V32.3775L212.581 32.8773C207.828 33.317 206.019 34.8762 206.019 37.3798C206.019 40.1933 207.893 41.5676 211.331 41.5676C216.019 41.5676 219.017 38.7541 219.017 34.0067V34.0017Z" fill="#343434"/>
<path d="M232.08 31.1882C232.08 21.5634 237.707 14.6871 247.017 14.6871C251.33 14.6871 255.143 16.5011 257.082 19.5645V0H264.642V46.505H257.641L257.142 41.6926C255.268 45.2556 251.265 47.3195 246.577 47.3195C237.637 47.3195 232.075 40.7581 232.075 31.1932L232.08 31.1882ZM257.022 30.9383C257.022 25.3763 253.583 21.4984 248.271 21.4984C242.959 21.4984 239.706 25.4363 239.706 30.9383C239.706 36.4404 242.954 40.3133 248.271 40.3133C253.588 40.3133 257.022 36.5003 257.022 30.9383Z" fill="#343434"/>
<path d="M271.704 4.81242C271.704 2.2488 273.768 0.249878 276.391 0.249878C279.015 0.249878 280.954 2.2488 280.954 4.81242C280.954 7.37604 278.89 9.43993 276.391 9.43993C273.768 9.43993 271.704 7.37604 271.704 4.81242ZM272.578 15.6266H280.204V46.505H272.578V15.6216V15.6266Z" fill="#343434"/>
<path d="M302.767 14.7471C312.332 14.7471 319.268 21.3735 319.268 30.9983C319.268 40.6231 312.332 47.2496 302.767 47.2496C293.202 47.2496 286.266 40.6231 286.266 30.9983C286.266 21.3735 293.202 14.7471 302.767 14.7471ZM302.767 40.4382C308.019 40.4382 311.642 36.6253 311.642 30.9983C311.642 25.3713 308.019 21.5584 302.767 21.5584C297.515 21.5584 293.892 25.3713 293.892 30.9983C293.892 36.6253 297.515 40.4382 302.767 40.4382Z" fill="#343434"/>
<path d="M155.761 108.661L172.262 62.9711H180.448L196.949 108.661H188.508L184.82 98.0972H167.755L164.067 108.661H155.756H155.761ZM170.138 91.3458H182.517L177.265 76.5937C176.89 75.4044 176.45 74.0301 176.325 73.0956C176.135 73.9701 175.76 75.3444 175.326 76.5937L170.138 91.3458Z" fill="#343434"/>
<path d="M201.576 108.661V77.7831H208.638L209.262 81.781C211.201 78.6577 214.949 76.8436 219.137 76.8436C226.888 76.8436 230.886 81.656 230.886 89.6567V108.656H223.26V91.4658C223.26 86.2785 220.696 83.7799 216.758 83.7799C212.071 83.7799 209.197 87.0281 209.197 92.0304V108.656H201.571L201.576 108.661Z" fill="#343434"/>
<path d="M237.012 99.8462C237.012 94.1593 241.14 90.5962 248.451 90.0315L257.701 89.3419V88.6523C257.701 84.4645 255.203 82.7754 251.325 82.7754C246.822 82.7754 244.323 84.6494 244.323 87.9027H237.822C237.822 81.2163 243.324 76.8386 251.699 76.8386C260.075 76.8386 265.137 81.3412 265.137 89.9016V108.651H258.451L257.886 104.089C256.572 107.277 252.384 109.466 247.572 109.466C241.01 109.466 237.007 105.653 237.007 99.8412L237.012 99.8462ZM257.766 96.1582V94.5341L251.33 95.0338C246.577 95.4736 244.768 97.0328 244.768 99.5364C244.768 102.35 246.642 103.724 250.08 103.724C254.768 103.724 257.766 100.911 257.766 96.1632V96.1582Z" fill="#343434"/>
<path d="M272.768 108.661V62.1565H280.329V108.661H272.768Z" fill="#343434"/>
<path d="M285.641 116.602H290.204C293.202 116.602 295.081 115.913 296.39 112.29L297.265 109.976L284.827 77.7881H292.887L300.823 100.291L309.198 77.7881H317.074L301.947 115.543C299.634 121.295 296.385 123.668 291.323 123.668C289.199 123.668 287.325 123.419 285.636 122.979V116.602H285.641Z" fill="#343434"/>
<path d="M319.768 108.661V102.41L335.145 84.1596H319.768V77.7831H344.709V84.0947L329.083 102.285H344.709V108.661H319.768Z" fill="#343434"/>
<path d="M348.767 93.2248C348.767 83.535 355.079 76.8486 364.144 76.8486C373.209 76.8486 379.271 83.0353 379.271 92.6601V94.9739L356.018 95.0338C356.578 100.471 359.456 103.219 364.519 103.219C368.706 103.219 371.455 101.595 372.33 98.6569H379.391C378.076 105.408 372.454 109.471 364.389 109.471C355.199 109.471 348.762 102.785 348.762 93.2198L348.767 93.2248ZM356.203 90.1615H371.705C371.705 85.9088 368.766 83.1003 364.204 83.1003C359.641 83.1003 356.953 85.539 356.203 90.1615Z" fill="#343434"/>
<path d="M404.772 84.7244H401.959C396.457 84.7244 393.018 87.6628 393.018 93.6645V108.666H385.392V77.8531H392.579L393.018 82.3556C394.333 79.2923 397.271 77.2284 401.394 77.2284C402.458 77.2284 403.518 77.3533 404.767 77.6682V84.7294L404.772 84.7244Z" fill="#343434"/>
</svg>
